# xmcd
#
# Track frame offsets: 
#        150
#        23692
#        39525
#        55420
#        75600
#        95700
#        115952
#        140037
#        155567
#        172477
#
# Disc length: 2565 seconds
#
# Revision: 6
# Processed by: cddbd v1.5.2PL0 Copyright (c) Steve Scherf et al.
# Submitted via: ExactAudioCopy v1.0b6
#
DISCID=8d0a030a
DTITLE=松田聖子 - SUPREME
DYEAR=1986
DGENRE=J-Pop
TTITLE0=螢の草原
TTITLE1=上海倶楽部
TTITLE2=ローラー・スケートをはいた猫
TTITLE3=チェルシー・ホテルのコーヒー・ハウス
TTITLE4=時間旅行
TTITLE5=白い夜
TTITLE6=マリオネットの涙
TTITLE7=雨のコニー・アイランド
TTITLE8=ローゼ・ワインより甘く
TTITLE9=瑠璃色の地球
EXTD=YEAR: 1986
EXTT0=
EXTT1=
EXTT2=
EXTT3=
EXTT4=
EXTT5=
EXTT6=
EXTT7=
EXTT8=
EXTT9=
PLAYORDER=
